# MagicaVoxel @ Ephtracy

# group
o 

# material
mtllib Stairs.mtl
usemtl palette

# normals
vn -1 0 0
vn 1 0 0
vn 0 0 1
vn 0 0 -1
vn 0 -1 0
vn 0 1 0

# texcoords
vt 0.373047 0.5
vt 0.966797 0.5

# verts
v -0.7 0 0.4
v -0.7 0 0.3
v -0.7 3.9 0.3
v -0.7 3.9 0.2
v -0.7 4 0.4
v -0.7 4 0.2
v 0.1 0 0.4
v 0.1 0 0.3
v 0.1 0.3 0.4
v 0.1 0.3 0.3
v 0.1 0.4 0.4
v 0.1 0.4 0.3
v 0.1 0.7 0.4
v 0.1 0.7 0.3
v 0.1 0.8 0.4
v 0.1 0.8 0.3
v 0.1 1.1 0.4
v 0.1 1.1 0.3
v 0.1 1.2 0.4
v 0.1 1.2 0.3
v 0.1 1.5 0.4
v 0.1 1.5 0.3
v 0.1 1.6 0.4
v 0.1 1.6 0.3
v 0.1 1.9 0.4
v 0.1 1.9 0.3
v 0.1 2 0.4
v 0.1 2 0.3
v 0.1 2.3 0.4
v 0.1 2.3 0.3
v 0.1 2.4 0.4
v 0.1 2.4 0.3
v 0.1 2.7 0.4
v 0.1 2.7 0.3
v 0.1 2.8 0.4
v 0.1 2.8 0.3
v 0.1 3.1 0.4
v 0.1 3.1 0.3
v 0.1 3.2 0.4
v 0.1 3.2 0.3
v 0.1 3.5 0.4
v 0.1 3.5 0.3
v 0.1 3.6 0.4
v 0.1 3.6 0.3
v 0.1 3.9 0.3
v 0.1 3.9 0.2
v 0.1 4 0.4
v 0.1 4 0.2
v -0.6 0 0.4
v -0.6 0 0.3
v -0.6 0.3 0.4
v -0.6 0.3 0.3
v -0.6 0.4 0.4
v -0.6 0.4 0.3
v -0.6 0.7 0.4
v -0.6 0.7 0.3
v -0.6 0.8 0.4
v -0.6 0.8 0.3
v -0.6 1.1 0.4
v -0.6 1.1 0.3
v -0.6 1.2 0.4
v -0.6 1.2 0.3
v -0.6 1.5 0.4
v -0.6 1.5 0.3
v -0.6 1.6 0.4
v -0.6 1.6 0.3
v -0.6 1.9 0.4
v -0.6 1.9 0.3
v -0.6 2 0.4
v -0.6 2 0.3
v -0.6 2.3 0.4
v -0.6 2.3 0.3
v -0.6 2.4 0.4
v -0.6 2.4 0.3
v -0.6 2.7 0.4
v -0.6 2.7 0.3
v -0.6 2.8 0.4
v -0.6 2.8 0.3
v -0.6 3.1 0.4
v -0.6 3.1 0.3
v -0.6 3.2 0.4
v -0.6 3.2 0.3
v -0.6 3.5 0.4
v -0.6 3.5 0.3
v -0.6 3.6 0.4
v -0.6 3.6 0.3
v -0.6 3.9 0.3
v -0.6 3.9 0.2
v -0.6 4 0.4
v -0.6 4 0.2
v 0.2 0 0.4
v 0.2 0 0.3
v 0.2 3.9 0.3
v 0.2 3.9 0.2
v 0.2 4 0.4
v 0.2 4 0.2
v -0.7 0 0.4
v -0.7 4 0.4
v -0.6 0 0.4
v -0.6 0.3 0.4
v -0.6 0.4 0.4
v -0.6 0.7 0.4
v -0.6 0.8 0.4
v -0.6 1.1 0.4
v -0.6 1.2 0.4
v -0.6 1.5 0.4
v -0.6 1.6 0.4
v -0.6 1.9 0.4
v -0.6 2 0.4
v -0.6 2.3 0.4
v -0.6 2.4 0.4
v -0.6 2.7 0.4
v -0.6 2.8 0.4
v -0.6 3.1 0.4
v -0.6 3.2 0.4
v -0.6 3.5 0.4
v -0.6 3.6 0.4
v -0.6 4 0.4
v 0.1 0 0.4
v 0.1 0.3 0.4
v 0.1 0.4 0.4
v 0.1 0.7 0.4
v 0.1 0.8 0.4
v 0.1 1.1 0.4
v 0.1 1.2 0.4
v 0.1 1.5 0.4
v 0.1 1.6 0.4
v 0.1 1.9 0.4
v 0.1 2 0.4
v 0.1 2.3 0.4
v 0.1 2.4 0.4
v 0.1 2.7 0.4
v 0.1 2.8 0.4
v 0.1 3.1 0.4
v 0.1 3.2 0.4
v 0.1 3.5 0.4
v 0.1 3.6 0.4
v 0.1 4 0.4
v 0.2 0 0.4
v 0.2 4 0.4
v -0.7 0 0.3
v -0.7 3.9 0.3
v -0.6 0 0.3
v -0.6 0.3 0.3
v -0.6 0.4 0.3
v -0.6 0.7 0.3
v -0.6 0.8 0.3
v -0.6 1.1 0.3
v -0.6 1.2 0.3
v -0.6 1.5 0.3
v -0.6 1.6 0.3
v -0.6 1.9 0.3
v -0.6 2 0.3
v -0.6 2.3 0.3
v -0.6 2.4 0.3
v -0.6 2.7 0.3
v -0.6 2.8 0.3
v -0.6 3.1 0.3
v -0.6 3.2 0.3
v -0.6 3.5 0.3
v -0.6 3.6 0.3
v -0.6 3.9 0.3
v 0.1 0 0.3
v 0.1 0.3 0.3
v 0.1 0.4 0.3
v 0.1 0.7 0.3
v 0.1 0.8 0.3
v 0.1 1.1 0.3
v 0.1 1.2 0.3
v 0.1 1.5 0.3
v 0.1 1.6 0.3
v 0.1 1.9 0.3
v 0.1 2 0.3
v 0.1 2.3 0.3
v 0.1 2.4 0.3
v 0.1 2.7 0.3
v 0.1 2.8 0.3
v 0.1 3.1 0.3
v 0.1 3.2 0.3
v 0.1 3.5 0.3
v 0.1 3.6 0.3
v 0.1 3.9 0.3
v 0.2 0 0.3
v 0.2 3.9 0.3
v -0.7 3.9 0.2
v -0.7 4 0.2
v -0.6 3.9 0.2
v -0.6 4 0.2
v 0.1 3.9 0.2
v 0.1 4 0.2
v 0.2 3.9 0.2
v 0.2 4 0.2
v -0.7 0 0.4
v -0.6 0 0.4
v 0.1 0 0.4
v 0.2 0 0.4
v -0.7 0 0.3
v -0.6 0 0.3
v 0.1 0 0.3
v 0.2 0 0.3
v -0.6 0.3 0.4
v 0.1 0.3 0.4
v -0.6 0.3 0.3
v 0.1 0.3 0.3
v -0.6 0.7 0.4
v 0.1 0.7 0.4
v -0.6 0.7 0.3
v 0.1 0.7 0.3
v -0.6 1.1 0.4
v 0.1 1.1 0.4
v -0.6 1.1 0.3
v 0.1 1.1 0.3
v -0.6 1.5 0.4
v 0.1 1.5 0.4
v -0.6 1.5 0.3
v 0.1 1.5 0.3
v -0.6 1.9 0.4
v 0.1 1.9 0.4
v -0.6 1.9 0.3
v 0.1 1.9 0.3
v -0.6 2.3 0.4
v 0.1 2.3 0.4
v -0.6 2.3 0.3
v 0.1 2.3 0.3
v -0.6 2.7 0.4
v 0.1 2.7 0.4
v -0.6 2.7 0.3
v 0.1 2.7 0.3
v -0.6 3.1 0.4
v 0.1 3.1 0.4
v -0.6 3.1 0.3
v 0.1 3.1 0.3
v -0.6 3.5 0.4
v 0.1 3.5 0.4
v -0.6 3.5 0.3
v 0.1 3.5 0.3
v -0.7 3.9 0.3
v -0.6 3.9 0.3
v 0.1 3.9 0.3
v 0.2 3.9 0.3
v -0.7 3.9 0.2
v -0.6 3.9 0.2
v 0.1 3.9 0.2
v 0.2 3.9 0.2
v -0.6 0.4 0.4
v 0.1 0.4 0.4
v -0.6 0.4 0.3
v 0.1 0.4 0.3
v -0.6 0.8 0.4
v 0.1 0.8 0.4
v -0.6 0.8 0.3
v 0.1 0.8 0.3
v -0.6 1.2 0.4
v 0.1 1.2 0.4
v -0.6 1.2 0.3
v 0.1 1.2 0.3
v -0.6 1.6 0.4
v 0.1 1.6 0.4
v -0.6 1.6 0.3
v 0.1 1.6 0.3
v -0.6 2 0.4
v 0.1 2 0.4
v -0.6 2 0.3
v 0.1 2 0.3
v -0.6 2.4 0.4
v 0.1 2.4 0.4
v -0.6 2.4 0.3
v 0.1 2.4 0.3
v -0.6 2.8 0.4
v 0.1 2.8 0.4
v -0.6 2.8 0.3
v 0.1 2.8 0.3
v -0.6 3.2 0.4
v 0.1 3.2 0.4
v -0.6 3.2 0.3
v 0.1 3.2 0.3
v -0.6 3.6 0.4
v 0.1 3.6 0.4
v -0.6 3.6 0.3
v 0.1 3.6 0.3
v -0.7 4 0.4
v -0.6 4 0.4
v 0.1 4 0.4
v 0.2 4 0.4
v -0.7 4 0.2
v -0.6 4 0.2
v 0.1 4 0.2
v 0.2 4 0.2

# faces
f 3/1/1 2/1/1 1/1/1
f 5/1/1 3/1/1 1/1/1
f 5/1/1 4/1/1 3/1/1
f 6/1/1 4/1/1 5/1/1
f 9/1/1 8/1/1 7/1/1
f 10/1/1 8/1/1 9/1/1
f 13/1/1 12/1/1 11/1/1
f 14/1/1 12/1/1 13/1/1
f 17/1/1 16/1/1 15/1/1
f 18/1/1 16/1/1 17/1/1
f 21/1/1 20/1/1 19/1/1
f 22/1/1 20/1/1 21/1/1
f 25/1/1 24/1/1 23/1/1
f 26/1/1 24/1/1 25/1/1
f 29/1/1 28/1/1 27/1/1
f 30/1/1 28/1/1 29/1/1
f 33/1/1 32/1/1 31/1/1
f 34/1/1 32/1/1 33/1/1
f 37/1/1 36/1/1 35/1/1
f 38/1/1 36/1/1 37/1/1
f 41/1/1 40/1/1 39/1/1
f 42/1/1 40/1/1 41/1/1
f 45/1/1 44/1/1 43/1/1
f 47/1/1 45/1/1 43/1/1
f 47/1/1 46/1/1 45/1/1
f 48/1/1 46/1/1 47/1/1
f 49/1/2 50/1/2 51/1/2
f 51/1/2 50/1/2 52/1/2
f 53/1/2 54/1/2 55/1/2
f 55/1/2 54/1/2 56/1/2
f 57/1/2 58/1/2 59/1/2
f 59/1/2 58/1/2 60/1/2
f 61/1/2 62/1/2 63/1/2
f 63/1/2 62/1/2 64/1/2
f 65/1/2 66/1/2 67/1/2
f 67/1/2 66/1/2 68/1/2
f 69/1/2 70/1/2 71/1/2
f 71/1/2 70/1/2 72/1/2
f 73/1/2 74/1/2 75/1/2
f 75/1/2 74/1/2 76/1/2
f 77/1/2 78/1/2 79/1/2
f 79/1/2 78/1/2 80/1/2
f 81/1/2 82/1/2 83/1/2
f 83/1/2 82/1/2 84/1/2
f 85/1/2 86/1/2 87/1/2
f 85/1/2 87/1/2 89/1/2
f 87/1/2 88/1/2 89/1/2
f 89/1/2 88/1/2 90/1/2
f 91/1/2 92/1/2 93/1/2
f 91/1/2 93/1/2 95/1/2
f 93/1/2 94/1/2 95/1/2
f 95/1/2 94/1/2 96/1/2
f 99/1/3 98/1/3 97/1/3
f 100/1/3 98/1/3 99/1/3
f 101/1/3 98/1/3 100/1/3
f 102/1/3 98/1/3 101/1/3
f 103/1/3 98/1/3 102/1/3
f 104/1/3 98/1/3 103/1/3
f 105/1/3 98/1/3 104/1/3
f 106/1/3 98/1/3 105/1/3
f 107/1/3 98/1/3 106/1/3
f 108/1/3 98/1/3 107/1/3
f 109/1/3 98/1/3 108/1/3
f 110/1/3 98/1/3 109/1/3
f 111/1/3 98/1/3 110/1/3
f 112/1/3 98/1/3 111/1/3
f 113/1/3 98/1/3 112/1/3
f 114/1/3 98/1/3 113/1/3
f 115/1/3 98/1/3 114/1/3
f 116/1/3 98/1/3 115/1/3
f 117/1/3 98/1/3 116/1/3
f 118/1/3 98/1/3 117/1/3
f 120/2/3 101/2/3 100/2/3
f 121/2/3 101/2/3 120/2/3
f 122/2/3 103/2/3 102/2/3
f 123/2/3 103/2/3 122/2/3
f 124/2/3 105/2/3 104/2/3
f 125/2/3 105/2/3 124/2/3
f 126/2/3 107/2/3 106/2/3
f 127/2/3 107/2/3 126/2/3
f 128/2/3 109/2/3 108/2/3
f 129/2/3 109/2/3 128/2/3
f 130/2/3 111/2/3 110/2/3
f 131/2/3 111/2/3 130/2/3
f 132/2/3 113/2/3 112/2/3
f 133/2/3 113/2/3 132/2/3
f 134/2/3 115/2/3 114/2/3
f 135/2/3 115/2/3 134/2/3
f 136/2/3 117/2/3 116/2/3
f 137/2/3 117/2/3 136/2/3
f 139/1/3 127/1/3 126/1/3
f 139/1/3 138/1/3 137/1/3
f 139/1/3 137/1/3 136/1/3
f 139/1/3 136/1/3 135/1/3
f 139/1/3 135/1/3 134/1/3
f 139/1/3 134/1/3 133/1/3
f 139/1/3 121/1/3 120/1/3
f 139/1/3 132/1/3 131/1/3
f 139/1/3 133/1/3 132/1/3
f 139/1/3 130/1/3 129/1/3
f 139/1/3 123/1/3 122/1/3
f 139/1/3 128/1/3 127/1/3
f 139/1/3 131/1/3 130/1/3
f 139/1/3 126/1/3 125/1/3
f 139/1/3 125/1/3 124/1/3
f 139/1/3 124/1/3 123/1/3
f 139/1/3 129/1/3 128/1/3
f 139/1/3 122/1/3 121/1/3
f 139/1/3 120/1/3 119/1/3
f 140/1/3 138/1/3 139/1/3
f 141/1/4 142/1/4 143/1/4
f 143/1/4 142/1/4 144/1/4
f 144/1/4 142/1/4 145/1/4
f 145/1/4 142/1/4 146/1/4
f 146/1/4 142/1/4 147/1/4
f 147/1/4 142/1/4 148/1/4
f 148/1/4 142/1/4 149/1/4
f 149/1/4 142/1/4 150/1/4
f 150/1/4 142/1/4 151/1/4
f 151/1/4 142/1/4 152/1/4
f 152/1/4 142/1/4 153/1/4
f 153/1/4 142/1/4 154/1/4
f 154/1/4 142/1/4 155/1/4
f 155/1/4 142/1/4 156/1/4
f 156/1/4 142/1/4 157/1/4
f 157/1/4 142/1/4 158/1/4
f 158/1/4 142/1/4 159/1/4
f 159/1/4 142/1/4 160/1/4
f 160/1/4 142/1/4 161/1/4
f 161/1/4 142/1/4 162/1/4
f 144/2/4 145/2/4 164/2/4
f 164/2/4 145/2/4 165/2/4
f 146/2/4 147/2/4 166/2/4
f 166/2/4 147/2/4 167/2/4
f 148/2/4 149/2/4 168/2/4
f 168/2/4 149/2/4 169/2/4
f 150/2/4 151/2/4 170/2/4
f 170/2/4 151/2/4 171/2/4
f 152/2/4 153/2/4 172/2/4
f 172/2/4 153/2/4 173/2/4
f 154/2/4 155/2/4 174/2/4
f 174/2/4 155/2/4 175/2/4
f 156/2/4 157/2/4 176/2/4
f 176/2/4 157/2/4 177/2/4
f 158/2/4 159/2/4 178/2/4
f 178/2/4 159/2/4 179/2/4
f 160/2/4 161/2/4 180/2/4
f 180/2/4 161/2/4 181/2/4
f 170/1/4 171/1/4 183/1/4
f 181/1/4 182/1/4 183/1/4
f 180/1/4 181/1/4 183/1/4
f 179/1/4 180/1/4 183/1/4
f 178/1/4 179/1/4 183/1/4
f 177/1/4 178/1/4 183/1/4
f 164/1/4 165/1/4 183/1/4
f 175/1/4 176/1/4 183/1/4
f 176/1/4 177/1/4 183/1/4
f 173/1/4 174/1/4 183/1/4
f 166/1/4 167/1/4 183/1/4
f 171/1/4 172/1/4 183/1/4
f 174/1/4 175/1/4 183/1/4
f 169/1/4 170/1/4 183/1/4
f 168/1/4 169/1/4 183/1/4
f 167/1/4 168/1/4 183/1/4
f 172/1/4 173/1/4 183/1/4
f 165/1/4 166/1/4 183/1/4
f 163/1/4 164/1/4 183/1/4
f 183/1/4 182/1/4 184/1/4
f 185/1/4 186/1/4 187/1/4
f 187/1/4 186/1/4 188/1/4
f 189/1/4 190/1/4 191/1/4
f 191/1/4 190/1/4 192/1/4
f 197/1/5 194/1/5 193/1/5
f 198/1/5 194/1/5 197/1/5
f 199/1/5 196/1/5 195/1/5
f 200/1/5 196/1/5 199/1/5
f 203/2/5 202/2/5 201/2/5
f 204/2/5 202/2/5 203/2/5
f 207/2/5 206/2/5 205/2/5
f 208/2/5 206/2/5 207/2/5
f 211/2/5 210/2/5 209/2/5
f 212/2/5 210/2/5 211/2/5
f 215/2/5 214/2/5 213/2/5
f 216/2/5 214/2/5 215/2/5
f 219/2/5 218/2/5 217/2/5
f 220/2/5 218/2/5 219/2/5
f 223/2/5 222/2/5 221/2/5
f 224/2/5 222/2/5 223/2/5
f 227/2/5 226/2/5 225/2/5
f 228/2/5 226/2/5 227/2/5
f 231/2/5 230/2/5 229/2/5
f 232/2/5 230/2/5 231/2/5
f 235/2/5 234/2/5 233/2/5
f 236/2/5 234/2/5 235/2/5
f 241/1/5 238/1/5 237/1/5
f 242/1/5 238/1/5 241/1/5
f 243/1/5 240/1/5 239/1/5
f 244/1/5 240/1/5 243/1/5
f 245/2/6 246/2/6 247/2/6
f 247/2/6 246/2/6 248/2/6
f 249/2/6 250/2/6 251/2/6
f 251/2/6 250/2/6 252/2/6
f 253/2/6 254/2/6 255/2/6
f 255/2/6 254/2/6 256/2/6
f 257/2/6 258/2/6 259/2/6
f 259/2/6 258/2/6 260/2/6
f 261/2/6 262/2/6 263/2/6
f 263/2/6 262/2/6 264/2/6
f 265/2/6 266/2/6 267/2/6
f 267/2/6 266/2/6 268/2/6
f 269/2/6 270/2/6 271/2/6
f 271/2/6 270/2/6 272/2/6
f 273/2/6 274/2/6 275/2/6
f 275/2/6 274/2/6 276/2/6
f 277/2/6 278/2/6 279/2/6
f 279/2/6 278/2/6 280/2/6
f 281/1/6 282/1/6 285/1/6
f 285/1/6 282/1/6 286/1/6
f 283/1/6 284/1/6 287/1/6
f 287/1/6 284/1/6 288/1/6
